<?xml version="1.0" encoding="UTF-8"?>
<svg width="38px" height="20px" viewBox="0 0 38 20" version="1.1" xmlns="http://www.w3.org/2000/svg" xmlns:xlink="http://www.w3.org/1999/xlink">
    <!-- Generator: Sketch 48.2 (47327) - http://www.bohemiancoding.com/sketch -->
    <title>Group 3</title>
    <desc>Created with Sketch.</desc>
    <defs></defs>
    <g id="01-Home-Copy-5" stroke="none" stroke-width="1" fill="none" fill-rule="evenodd" transform="translate(-40.000000, -486.000000)">
        <g id="Group-4" transform="translate(20.000000, 342.000000)" fill="#D9DBDE" fill-rule="nonzero">
            <g id="Group-3" transform="translate(39.000000, 154.000000) scale(-1, 1) translate(-39.000000, -154.000000) translate(20.000000, 144.000000)">
                <g id="noun_1290218_cc">
                    <g id="Group" transform="translate(0.000000, 7.916667)">
                        <path d="M10.64,7.97083333 L10.64,7.27916667 L8.96967033,5.6125 L6.8567033,7.72083333 C6.28630931,8.31368158 5.38915014,8.45299098 4.66517921,8.06112959 C3.94120829,7.66926819 3.56903283,6.84291016 3.75605239,6.04255407 C3.94307194,5.24219798 4.64314784,4.66529567 5.46615385,4.63333333 L6.7189011,3.38333333 L4.43472527,1.10416667 C1.84481585,1.63566139 0.00313665816,3.93458527 0.0540846816,6.57241505 C0.105032705,9.21024483 2.03411593,11.4366579 4.64262558,11.8681883 C7.25113523,12.2997187 9.79708869,10.813619 10.6984615,8.33333333 C10.6611984,8.21602998 10.6414988,8.09387925 10.64,7.97083333 Z" id="Shape"></path>
                        <path d="M25.8567033,5.56666667 L25.8967033,5.56666667 L25.8567033,5.56666667 Z" id="Shape"></path>
                        <path d="M31.7112088,0.2 C30.78542,0.19764748 29.8723072,0.414714523 29.047033,0.833333333 L32.2707692,4.05 C33.259699,4.31505222 33.9100466,5.25659218 33.8063077,6.2730741 C33.7025688,7.28955603 32.8753623,8.0809622 31.8531868,8.14166667 C31.8031626,8.14580217 31.7528813,8.14580217 31.7028571,8.14166667 L27.881978,8.14166667 C27.5498407,8.14137491 27.2314136,8.00948748 26.9967033,7.775 L26.1615385,6.94166667 L26.1615385,7.93333333 C26.1615385,7.93333333 26.1615385,7.97083333 26.1615385,7.9875 C27.1423015,10.8116556 30.0941523,12.4486033 33.0156446,11.7884417 C35.9371369,11.1282802 37.8941821,8.38208283 37.559843,5.41185661 C37.2255039,2.44163038 34.7066786,0.197045468 31.7112088,0.2 Z" id="Shape"></path>
                        <path d="M26.0776923,5.69166667 C26.0341642,5.64952033 25.9833382,5.61563634 25.9276923,5.59166667 C25.9833382,5.61563634 26.0341642,5.64952033 26.0776923,5.69166667 Z" id="Shape"></path>
                    </g>
                    <g id="Group" transform="translate(2.087912, 0.000000)">
                        <ellipse id="Oval" cx="20.4406593" cy="8.11666667" rx="1" ry="1"></ellipse>
                        <path d="M24.2991209,6.28333333 L27.3391209,6.28333333 C27.4486694,6.28287307 27.5536494,6.23947673 27.6314286,6.1625 L32.2248352,1.57916667 C32.3389553,1.45980889 32.3717586,1.28450992 32.308493,1.13210379 C32.2452275,0.979697675 32.0978067,0.87888404 31.9325275,0.875 L26.6793407,0.875 C26.4487163,0.875 26.2617582,1.06154802 26.2617582,1.29166667 L26.2617582,2.60416667 C26.261297,2.71347495 26.2178053,2.81822473 26.1406593,2.89583333 L24.6373626,4.40833333 C24.5595835,4.48531007 24.4546035,4.52870641 24.3450549,4.52916667 L20.6661538,4.52916667 C20.5566053,4.52870641 20.4516253,4.48531007 20.3738462,4.40833333 L18.0479121,2.08333333 C17.9701329,2.0063566 17.8651529,1.96296026 17.7556044,1.9625 L11.7967033,1.9625 C11.6871548,1.96296026 11.5821748,2.0063566 11.5043956,2.08333333 L10.0428571,3.54166667 C9.96507798,3.6186434 9.86009797,3.66203974 9.75054945,3.6625 L6.44747253,3.6625 C6.21684813,3.6625 6.02989011,3.47595198 6.02989011,3.24583333 L6.02989011,2.5 C6.03035138,2.39069172 6.0738431,2.28594193 6.15098901,2.20833333 L7.4789011,0.883333333 C7.60358713,0.717449874 7.58705442,0.485327156 7.44011052,0.338705508 C7.29316663,0.19208386 7.06053375,0.175587406 6.89428571,0.3 L4.43472527,2.75416667 L0.438461538,6.74166667 C0.324341437,6.86102444 0.291538133,7.03632342 0.354803669,7.18872954 C0.418069204,7.34113566 0.565490034,7.44194929 0.730769231,7.44583333 L1.79142857,7.44583333 C1.90097709,7.44629359 2.0059571,7.48968993 2.08373626,7.56666667 L5.84615385,11.2958333 L3.71648352,13.4208333 C3.24777342,13.294176 2.75596429,13.5240247 2.55342226,13.9643941 C2.35088024,14.4047635 2.49691767,14.9266959 2.89878079,15.1986928 C3.30064392,15.4706897 3.84065125,15.4130995 4.17582418,15.0625 L6.88593407,12.3583333 L9.26615385,14.7333333 C9.34329976,14.8109419 9.38679148,14.9156917 9.38725275,15.025 L9.38725275,15.8916667 C9.38725275,16.1217853 9.57421076,16.3083333 9.80483516,16.3083333 L22.8417582,16.3083333 C23.0723826,16.3083333 23.2593407,16.1217853 23.2593407,15.8916667 L23.2593407,13.8833333 C23.2632332,13.7184166 23.3642684,13.5713191 23.5170095,13.5081923 C23.6697506,13.4450655 23.8454348,13.4777968 23.9650549,13.5916667 L25.5017582,15.125 C25.5795374,15.2019767 25.6845174,15.2453731 25.7940659,15.2458333 L29.6232967,15.2458333 L29.6650549,15.2458333 C30.3569281,15.2745981 30.9411719,14.7382726 30.9699999,14.0479167 C30.998828,13.3575608 30.4613237,12.7745982 29.7694505,12.7458333 L24.0068132,6.9875 C23.8926931,6.86814223 23.8598898,6.69284325 23.9231553,6.54043713 C23.9864209,6.38803101 24.1338417,6.28721737 24.2991209,6.28333333 Z" id="Shape"></path>
                    </g>
                </g>
            </g>
        </g>
    </g>
</svg>