<?xml version="1.0" encoding="utf-8"?>
<!-- Generator: Adobe Illustrator 21.0.2, SVG Export Plug-In . SVG Version: 6.00 Build 0)  -->
<svg version="1.1" id="Ebene_1" xmlns="http://www.w3.org/2000/svg" xmlns:xlink="http://www.w3.org/1999/xlink" x="0px" y="0px"
	 viewBox="0 0 18 18" style="enable-background:new 0 0 18 18;" xml:space="preserve">
<style type="text/css">
	.st0{filter:url(#Adobe_OpacityMaskFilter);}
	.st1{fill:#FFFFFF;}
	.st2{mask:url(#mask-2);}
</style>
<defs>
	<filter id="Adobe_OpacityMaskFilter" filterUnits="userSpaceOnUse" x="0.2" y="0.2" width="17.7" height="17.7">
		<feColorMatrix  type="matrix" values="1 0 0 0 0  0 1 0 0 0  0 0 1 0 0  0 0 0 1 0"/>
	</filter>
</defs>
<mask maskUnits="userSpaceOnUse" x="0.2" y="0.2" width="17.7" height="17.7" id="mask-2">
	<g class="st0">
		<polygon id="path-1" class="st1" points="17.8,9 17.8,0.2 0.2,0.2 0.2,9 0.2,17.8 17.8,17.8 		"/>
	</g>
</mask>
<path id="Fill-1" class="st2" d="M9,5c2.2,0,4,1.8,4,4s-1.8,4-4,4s-4-1.8-4-4S6.8,5,9,5L9,5z M7.8,0.2L7.2,2.3
	C6.6,2.5,6.1,2.7,5.6,3L3.6,1.9L1.9,3.6L3,5.6c-0.3,0.5-0.5,1-0.7,1.6L0.2,7.8v2.5l2.1,0.6c0.2,0.6,0.4,1.1,0.7,1.6l-1.1,1.9
	l1.7,1.7L5.6,15c0.5,0.3,1,0.5,1.6,0.7l0.6,2.1h2.5l0.6-2.1c0.6-0.2,1.1-0.4,1.6-0.7l1.9,1.1l1.7-1.7L15,12.4c0.3-0.5,0.5-1,0.7-1.6
	l2.1-0.6V7.8l-2.1-0.6c-0.2-0.6-0.4-1.1-0.7-1.6l1.1-1.9l-1.7-1.7L12.4,3c-0.5-0.3-1-0.5-1.6-0.7l-0.6-2.1H7.8z"/>
</svg>
