<?xml version="1.0" encoding="utf-8"?>
<!-- Generator: Adobe Illustrator 21.0.2, SVG Export Plug-In . SVG Version: 6.00 Build 0)  -->
<svg version="1.1" id="Ebene_1" xmlns="http://www.w3.org/2000/svg" xmlns:xlink="http://www.w3.org/1999/xlink" x="0px" y="0px"
	 viewBox="0 0 19 20" style="enable-background:new 0 0 19 20;" xml:space="preserve">
<path d="M9.4,7.4C9,7.4,8.7,7.7,8.7,8.1c0,0.4,0.3,0.7,0.7,0.7c0.4,0,0.7-0.3,0.7-0.7C10.1,7.7,9.8,7.4,9.4,7.4 M18,13.9h0.1
	c0.4,0,0.7-0.5,0.7-0.9L18,8.3c0-0.4-0.5-0.7-0.9-0.7s-0.7,0.5-0.7,0.9l0.7,4.7C17.2,13.6,17.6,13.9,18,13.9 M2.2,6.8
	c0.1,0,0.2,0,0.3,0c0.3,0,0.6-0.2,0.7-0.5c0.6-1.2,1.7-2.8,4-3.4c0.4-0.1,0.7-0.5,0.6-1S7.3,1.3,6.9,1.4C4,2.1,2.6,4.2,1.9,5.6
	C1.7,6.1,1.9,6.6,2.2,6.8 M8.9,0.5c5.2,0,7.4,3.4,8.3,5.2c0.3,0.8-0.1,1-0.5,1c-1,0-2.9,0.1-4.7,0.3c0,0-0.4,0-0.7,0
	C11,6.9,10,6.5,10,6.5h0c-0.1,0-0.3,0-0.5,0c-0.9,0-1.7,0.8-1.7,1.7c0,0.4,0.1,0.7,0.3,1l1,1.7c0,0,0,0.1,0.1,0.2
	c0.1,0.1,0.4,0.3,0.7,0.5c0.8,0.3,5.7,2.4,7.9,3.3c0.3,0.1,0.8,0.5,0.8,1.1c0,1.2-2,3.6-3.3,3.2c0,0-11.7-4.8-12.9-5.4
	c-1.2-0.5-1.4-0.9-1.7-1.6C0.6,11.2,0.2,10,0.2,8.7C0.3,6.4,1.9,0.5,8.9,0.5"/>
</svg>
