<?xml version="1.0" encoding="utf-8"?>
<!-- Generator: Adobe Illustrator 21.0.2, SVG Export Plug-In . SVG Version: 6.00 Build 0)  -->
<svg version="1.1" id="Ebene_1" xmlns="http://www.w3.org/2000/svg" xmlns:xlink="http://www.w3.org/1999/xlink" x="0px" y="0px"
	 viewBox="0 0 17 18" style="enable-background:new 0 0 17 18;" xml:space="preserve">
<path d="M7.2,0h8.3c0.3,0,0.6,0.3,0.6,0.6v16.7c0,0.3-0.3,0.6-0.6,0.6H7.2c-0.3,0-0.6-0.3-0.6-0.6v-2.9c0-0.3,0.3-0.6,0.6-0.6
	s0.6,0.3,0.6,0.6v2.3h7V1.3h-7v2.3c0,0.3-0.3,0.6-0.6,0.6S6.6,3.9,6.6,3.5V0.6C6.6,0.3,6.9,0,7.2,0 M0,9c0-0.1,0.1-0.3,0.2-0.4
	L3.5,5C3.7,4.8,4.1,4.7,4.4,5c0.2,0.2,0.2,0.7,0,0.9L2,8.4h10.6c0.3,0,0.6,0.3,0.6,0.6c0,0.3-0.3,0.6-0.6,0.6H2l2.3,2.5
	c0.2,0.2,0.3,0.7,0,0.9c-0.2,0.2-0.7,0.2-0.9-0.1L0.2,9.4C0.1,9.3,0,9.2,0,9"/>
</svg>
