<?xml version="1.0" encoding="utf-8"?>
<!-- Generator: Adobe Illustrator 21.0.2, SVG Export Plug-In . SVG Version: 6.00 Build 0)  -->
<svg version="1.1" id="Ebene_1" xmlns="http://www.w3.org/2000/svg" xmlns:xlink="http://www.w3.org/1999/xlink" x="0px" y="0px"
	 viewBox="0 0 15 18" style="enable-background:new 0 0 15 18;" xml:space="preserve">
<style type="text/css">
	.st0{filter:url(#Adobe_OpacityMaskFilter);}
	.st1{fill:#FFFFFF;}
	.st2{mask:url(#mask-2);}
</style>
<defs>
	<filter id="Adobe_OpacityMaskFilter" filterUnits="userSpaceOnUse" x="0" y="0" width="14.9" height="17.8">
		<feColorMatrix  type="matrix" values="1 0 0 0 0  0 1 0 0 0  0 0 1 0 0  0 0 0 1 0"/>
	</filter>
</defs>
<mask maskUnits="userSpaceOnUse" x="0" y="0" width="14.9" height="17.8" id="mask-2">
	<g class="st0">
		<polygon id="path-1" class="st1" points="14.9,8.9 14.9,0 0,0 0,8.9 0,17.8 14.9,17.8 		"/>
	</g>
</mask>
<path id="Fill-1" class="st2" d="M0,15.9c0,0,0.2-0.5,0.5-2.3c0.1-0.7,1.4-1.3,3.2-2.1c0.6-0.3,1.1-0.5,1.4-0.7
	c0.7-0.5,0.7-1.1,0.7-1.6V9c0-0.1-0.1-0.2-0.2-0.4C5.4,8.4,5.2,8.2,5,7.5c0-0.1-0.1-0.2-0.1-0.4c0,0,0-0.1-0.1-0.3
	c0-0.1-0.1-0.3-0.1-0.4c-0.3,0.4-0.8-1-0.6-1.6c0.1-0.3,0.2-0.4,0.4-0.3c0-0.1-1-2.5,0.3-3.4C4.7,0.7,4.8,0.2,4.8,0.2
	c0-0.1,0-0.1,0.1-0.1c0.1,0,0.1,0,0.2,0c0.7,0.5,1.4,0.3,2.2,0.1c0.6-0.1,1.1-0.3,1.7-0.2c0.6,0.1,1,0.7,1.1,1.1
	c1.3,0.9,0.3,3.2,0.3,3.4c0.1,0,0.3,0,0.4,0.3c0.1,0.6-0.3,1.9-0.6,1.6C10,6.8,9.9,7.5,9.8,7.7c-0.1,0.6-0.3,0.8-0.5,1
	C9.2,8.8,9.2,8.9,9.2,9.1v0.2c0,0.5,0,1.1,0.7,1.6c0.2,0.2,0.8,0.4,1.4,0.7c1.7,0.8,3.1,1.4,3.2,2.1c0.3,1.8,0.5,2.3,0.5,2.3v0v0
	C14,18.4,0.9,18.4,0,15.9L0,15.9L0,15.9z"/>
</svg>
