<?xml version="1.0" encoding="utf-8"?>
<!-- Generator: Adobe Illustrator 21.0.2, SVG Export Plug-In . SVG Version: 6.00 Build 0)  -->
<svg version="1.1" id="Ebene_1" xmlns="http://www.w3.org/2000/svg" xmlns:xlink="http://www.w3.org/1999/xlink" x="0px" y="0px"
	 viewBox="0 0 18 18" style="enable-background:new 0 0 18 18;" xml:space="preserve">
<path d="M4.4,3.1V0.7C4.4,0.3,4.7,0,5.1,0c0.4,0,0.7,0.3,0.7,0.7v2.4c0,0.4-0.3,0.7-0.7,0.7C4.7,3.8,4.4,3.5,4.4,3.1z M12.9,3.8
	c0.4,0,0.7-0.3,0.7-0.7V0.7c0-0.4-0.3-0.7-0.7-0.7c-0.4,0-0.7,0.3-0.7,0.7v2.4C12.2,3.5,12.5,3.8,12.9,3.8z M17,1.8h-2.6v1.3
	c0,0.9-0.7,1.6-1.6,1.6S11.3,4,11.3,3.1V1.8H6.7v1.3C6.7,4,6,4.7,5.1,4.7C4.3,4.7,3.5,4,3.5,3.1V1.8H1c-0.5,0-1,0.4-1,1v4h18v-4
	C18,2.2,17.6,1.8,17,1.8z M0,7.5h18V17c0,0.5-0.4,1-1,1H1c-0.5,0-1-0.4-1-1V7.5z M13.3,12.3h2.5V9.8h-2.5V12.3z M13.3,15.8h2.5v-2.5
	h-2.5V15.8z M9.6,12.3h2.5V9.8H9.6V12.3z M9.6,15.8h2.5v-2.5H9.6V15.8z M5.9,12.3h2.5V9.8H5.9V12.3z M5.9,15.8h2.5v-2.5H5.9V15.8z
	 M2.2,12.3h2.5V9.8H2.2V12.3z M2.2,15.8h2.5v-2.5H2.2V15.8z"/>
</svg>
