<?xml version="1.0" encoding="utf-8"?>
<!-- Generator: Adobe Illustrator 21.0.2, SVG Export Plug-In . SVG Version: 6.00 Build 0)  -->
<svg version="1.1" id="Ebene_1" xmlns="http://www.w3.org/2000/svg" xmlns:xlink="http://www.w3.org/1999/xlink" x="0px" y="0px"
	 viewBox="0 0 13 24" style="enable-background:new 0 0 13 24;" xml:space="preserve">
<path id="asd" d="M8.3,23.6V13h3.5l0.5-4.1H8.3V6.2c0-0.6,0.1-1.1,0.4-1.4s0.8-0.6,1.7-0.6h2.2V0.5c-0.2,0-0.6-0.1-1.2-0.1
	s-1.3-0.1-2-0.1c-0.8,0-1.5,0.1-2.2,0.4S6,1.3,5.5,1.8C5,2.2,4.7,2.8,4.4,3.5C4.2,4.1,4,4.9,4,5.8v3H0.5V13H4v10.6H8.3z"/>
</svg>
