<?xml version="1.0" encoding="utf-8"?>
<!-- Generator: Adobe Illustrator 21.0.2, SVG Export Plug-In . SVG Version: 6.00 Build 0)  -->
<svg version="1.1" id="Ebene_1" xmlns="http://www.w3.org/2000/svg" xmlns:xlink="http://www.w3.org/1999/xlink" x="0px" y="0px"
	 viewBox="0 0 20 20" style="enable-background:new 0 0 20 20;" xml:space="preserve">
<path id="asd" d="M19.5,9.4c0-0.2,0-0.4-0.1-0.6c0-0.2-0.1-0.4-0.1-0.6h-9.2V12h5.3c-0.1,0.6-0.3,1.2-0.7,1.7s-0.8,1-1.3,1.3
	c-0.3,0.2-0.7,0.4-1,0.5c-0.4,0.1-0.7,0.3-1.1,0.3C11,15.9,10.6,16,10.2,16c-0.4,0-0.8,0-1.2-0.1c-0.4-0.1-0.8-0.2-1.1-0.4
	c-0.4-0.2-0.7-0.4-1-0.6c-0.5-0.3-0.9-0.7-1.3-1.2c-0.4-0.5-0.7-1-0.9-1.5c0,0,0-0.1,0-0.1c0-0.1,0-0.1-0.1-0.1h0
	c-0.2-0.6-0.3-1.2-0.3-1.9c0-0.7,0.1-1.3,0.3-1.9C4.8,7.7,5,7.3,5.2,6.9c0.2-0.4,0.5-0.7,0.9-1.1c0.4-0.4,0.8-0.7,1.3-1
	c0.5-0.3,1-0.5,1.6-0.6C9.5,4.1,10,4,10.4,4c0.5,0,1,0.1,1.4,0.2c0.4,0.1,0.8,0.3,1.1,0.5s0.7,0.5,1,0.8c0.3-0.3,0.6-0.6,0.9-0.9
	c0.3-0.3,0.6-0.6,0.9-0.9c0.2-0.2,0.3-0.3,0.5-0.5c0.2-0.2,0.3-0.3,0.5-0.5c-0.5-0.4-1-0.8-1.5-1.1c-0.5-0.3-1.1-0.6-1.7-0.8
	c-0.5-0.2-1.1-0.4-1.6-0.5c-0.6-0.1-1.1-0.2-1.7-0.2c-0.6,0-1.1,0-1.7,0.1S7.5,0.6,7,0.8C6.4,1,5.9,1.2,5.3,1.5S4.2,2.2,3.8,2.6
	S2.9,3.5,2.5,4s-0.7,1-1,1.6C1.3,6,1.1,6.4,1,6.8S0.7,7.6,0.6,8.1C0.5,8.6,0.4,9.1,0.4,9.7s0,1.1,0.1,1.6c0.1,0.5,0.2,1.1,0.3,1.6
	c0.2,0.5,0.3,1,0.6,1.5c0.3,0.6,0.7,1.2,1.2,1.8c0.5,0.5,1,1,1.5,1.5c0.5,0.4,1.1,0.8,1.7,1.1C6.4,19,7,19.2,7.7,19.4
	c0.8,0.2,1.6,0.3,2.5,0.4s1.7-0.1,2.5-0.3c0.7-0.2,1.4-0.4,2.1-0.8s1.3-0.8,1.9-1.3c0.6-0.5,1.1-1.2,1.5-1.9s0.7-1.4,1-2.2
	c0.2-0.6,0.3-1.3,0.4-2C19.6,10.7,19.6,10,19.5,9.4z"/>
</svg>
