<?xml version="1.0" encoding="utf-8"?>
<!-- Generator: Adobe Illustrator 21.0.2, SVG Export Plug-In . SVG Version: 6.00 Build 0)  -->
<svg version="1.1" id="Ebene_1" xmlns="http://www.w3.org/2000/svg" xmlns:xlink="http://www.w3.org/1999/xlink" x="0px" y="0px"
	 viewBox="0 0 12 18" style="enable-background:new 0 0 12 18;" xml:space="preserve">
<style type="text/css">
	.st0{filter:url(#Adobe_OpacityMaskFilter);}
	.st1{fill:#FFFFFF;}
	.st2{mask:url(#mask-2);}
</style>
<defs>
	<filter id="Adobe_OpacityMaskFilter" filterUnits="userSpaceOnUse" x="0" y="0" width="12" height="18">
		<feColorMatrix  type="matrix" values="1 0 0 0 0  0 1 0 0 0  0 0 1 0 0  0 0 0 1 0"/>
	</filter>
</defs>
<mask maskUnits="userSpaceOnUse" x="0" y="0" width="12" height="18" id="mask-2">
	<g class="st0">
		<polygon id="path-1" class="st1" points="12,9 12,0 0,0 0,9 0,18 12,18 		"/>
	</g>
</mask>
<path id="Fill-1" class="st2" d="M6,3.8c-1.3,0-2.3,1.1-2.3,2.4s1,2.4,2.3,2.4s2.3-1.1,2.3-2.4S7.3,3.8,6,3.8 M6,18
	c0,0-4.3-5.5-5.7-9.7C0.1,7.6,0,6.9,0,6.2C0,2.8,2.7,0,6,0s6,2.8,6,6.2c0,0.7-0.1,1.4-0.3,2C10.3,12.8,6,18,6,18"/>
</svg>
