<?xml version="1.0" encoding="utf-8"?>
<!-- Generator: Adobe Illustrator 21.0.2, SVG Export Plug-In . SVG Version: 6.00 Build 0)  -->
<svg version="1.1" id="Ebene_1" xmlns="http://www.w3.org/2000/svg" xmlns:xlink="http://www.w3.org/1999/xlink" x="0px" y="0px"
	 viewBox="0 0 15 18" style="enable-background:new 0 0 15 18;" xml:space="preserve">
<style type="text/css">
	.st0{filter:url(#Adobe_OpacityMaskFilter);}
	.st1{fill:#FFFFFF;}
	.st2{mask:url(#mask-2);}
</style>
<defs>
	<filter id="Adobe_OpacityMaskFilter" filterUnits="userSpaceOnUse" x="0" y="0" width="15" height="18">
		<feColorMatrix  type="matrix" values="1 0 0 0 0  0 1 0 0 0  0 0 1 0 0  0 0 0 1 0"/>
	</filter>
</defs>
<mask maskUnits="userSpaceOnUse" x="0" y="0" width="15" height="18" id="mask-2">
	<g class="st0">
		<polygon id="path-1" class="st1" points="0,18 0,0 15,0 15,18 		"/>
	</g>
</mask>
<path id="Fill-1" class="st2" d="M14.3,12.7c-0.5-0.4-1.3-1.6-1.5-3.1c0-0.4-0.1-0.8-0.1-1.1c-0.2-2.3-0.3-4.1-1.2-5.4
	c-0.8-1.2-1.7-1.8-2.9-2C8.5,0.4,8.1,0,7.5,0c-0.6,0-1,0.4-1.2,1c-1.2,0.2-2.1,0.9-2.9,2c-0.9,1.3-1,3.1-1.2,5.4
	c0,0.4-0.1,0.7-0.1,1.1c-0.1,1.5-1,2.7-1.5,3.1c-0.6,0.6-0.7,1.5-0.7,2c0,0.3,0.2,0.5,0.5,0.5h5.2v1c0,1,0.8,1.8,1.8,1.8
	c1,0,1.8-0.8,1.8-1.8v-1h5.2c0.3,0,0.5-0.2,0.5-0.5C15,14.1,14.9,13.3,14.3,12.7"/>
</svg>
